<svg width="44" height="44" viewBox="0 0 44 44" fill="none" xmlns="http://www.w3.org/2000/svg">
<path d="M21.9878 44C15.9778 44 15.2693 43.9683 12.9239 43.8658C11.095 43.8058 9.28968 43.4345 7.58579 42.768C4.63774 41.6224 2.30662 39.2938 1.16047 36.3495C0.518683 34.6419 0.172526 32.8377 0.136813 31.0142C0 28.6771 0 27.9111 0 21.9561C0 15.9377 0.0317601 15.2351 0.136813 12.9053C0.173307 11.0842 0.519452 9.28256 1.16047 7.57729C2.30537 4.62915 4.64028 2.29849 7.59311 1.15635C9.29996 0.512802 11.1047 0.166242 12.9288 0.131737C15.262 0 16.0291 0 21.9878 0C28.0466 0 28.7429 0.0317143 31.0516 0.131737C32.8805 0.166541 34.69 0.513064 36.402 1.15635C39.354 2.29979 41.6884 4.62999 42.8346 7.57729C43.4873 9.30741 43.8352 11.1372 43.8632 12.9858C44 15.3229 44 16.0865 44 22.039C44 27.9916 43.9658 28.7722 43.8632 31.0825C43.8268 32.9078 43.4798 34.7136 42.8371 36.4227C41.688 39.369 39.3534 41.6985 36.402 42.8436C34.6924 43.4833 32.8867 43.8289 31.0614 43.8658C28.7283 44 27.9636 44 21.9878 44ZM21.9047 3.86183C15.9289 3.86183 15.3084 3.89111 12.9752 3.99601C11.5826 4.01443 10.2035 4.27105 8.89772 4.75471C6.96952 5.49148 5.44375 7.00885 4.69806 8.93125C4.20996 10.2493 3.95293 11.6416 3.93826 13.0468C3.80877 15.4107 3.80877 16.0304 3.80877 21.9561C3.80877 27.811 3.83076 28.521 3.93826 30.8703C3.96013 32.2613 4.217 33.6387 4.69806 34.9443C5.44485 36.8655 6.97036 38.3817 8.89772 39.1184C10.2026 39.6053 11.5823 39.862 12.9752 39.8771C15.3401 40.0137 15.9631 40.0137 21.9047 40.0137C27.8976 40.0137 28.5182 39.9845 30.8318 39.8771C32.2253 39.8602 33.6055 39.6035 34.9117 39.1184C36.8282 38.3753 38.3441 36.8625 39.0894 34.9492C39.5765 33.63 39.8335 32.2372 39.8492 30.8312H39.8761C39.9811 28.499 39.9811 27.8769 39.9811 21.9171C39.9811 15.9572 39.9542 15.3302 39.8492 13.0004C39.8273 11.611 39.5704 10.2352 39.0894 8.93125C38.3458 7.01515 36.8297 5.49949 34.9117 4.75471C33.6058 4.26861 32.2254 4.01192 30.8318 3.99601C28.4693 3.86183 27.8512 3.86183 21.9047 3.86183ZM21.9878 33.2244C17.4192 33.2274 13.2987 30.4817 11.5481 26.2679C9.79753 22.0541 10.7616 17.2022 13.9907 13.975C17.2197 10.7477 22.0778 9.78088 26.2992 11.5253C30.5206 13.2698 33.2739 17.3819 33.2748 21.9439C33.2681 28.1674 28.2202 33.2123 21.9878 33.2244ZM21.9878 14.6203C17.9399 14.6203 14.6585 17.897 14.6585 21.939C14.6585 25.981 17.9399 29.2577 21.9878 29.2577C26.0356 29.2577 29.317 25.981 29.317 21.939C29.3076 17.9009 26.0317 14.6297 21.9878 14.6203ZM33.7146 12.8809C32.262 12.8755 31.088 11.6967 31.0907 10.2462C31.0934 8.79568 32.2718 7.62122 33.7244 7.62122C35.177 7.62122 36.3553 8.79566 36.358 10.2462C36.3587 10.946 36.0802 11.6173 35.5842 12.1117C35.0882 12.606 34.4154 12.8828 33.7146 12.8809Z" fill="black"/>
</svg>
