<svg width="44" height="44" viewBox="0 0 44 44" fill="none" xmlns="http://www.w3.org/2000/svg">
<path d="M24.4444 44H14.6666V14.6667H24.4444V19.5556C26.5286 16.904 29.6893 15.3232 33.061 15.246C39.1247 15.2797 44.0175 20.214 44 26.2778V44H34.2222V27.5C33.8311 24.7686 31.4887 22.7421 28.7295 22.748C27.5226 22.7862 26.3834 23.3146 25.5748 24.2113C24.7662 25.108 24.358 26.2956 24.4444 27.5V44ZM9.77776 44H0V14.6667H9.77776V44ZM4.88888 9.77778C2.18883 9.77778 0 7.58895 0 4.88889C0 2.18883 2.18883 0 4.88888 0C7.58893 0 9.77776 2.18883 9.77776 4.88889C9.77776 6.1855 9.26268 7.42901 8.34584 8.34586C7.429 9.2627 6.18549 9.77778 4.88888 9.77778Z" fill="black"/>
</svg>
